<?xml version="1.0" encoding="UTF-8" standalone="no"?>
<svg
   xmlns:dc="http://purl.org/dc/elements/1.1/"
   xmlns:cc="http://creativecommons.org/ns#"
   xmlns:rdf="http://www.w3.org/1999/02/22-rdf-syntax-ns#"
   xmlns:svg="http://www.w3.org/2000/svg"
   xmlns="http://www.w3.org/2000/svg"
   xml:space="preserve"
   width="26"
   viewBox="0 0 26 32"
   version="1.0"
   id="Layer_1"
   height="32"
   enable-background="new 0 0 32 32"><metadata
     id="metadata29"><rdf:RDF><cc:Work
         rdf:about=""><dc:format>image/svg+xml</dc:format><dc:type
           rdf:resource="http://purl.org/dc/dcmitype/StillImage" /><dc:title></dc:title></cc:Work></rdf:RDF></metadata><defs
     id="defs27" /><g
     transform="translate(-3,0.022)"
     id="g10"><path
       style="fill:#85c808"
       id="path2"
       d="m 5,8.978 c -1.104,0 -2,0.896 -2,2 v 8 c 0,1.104 0.896,2 2,2 1.104,0 2,-0.896 2,-2 v -8 c 0,-1.105 -0.896,-2 -2,-2 z" /><path
       style="fill:#85c808"
       id="path4"
       d="m 27,8.978 c -1.104,0 -2,0.896 -2,2 v 8 c 0,1.104 0.896,2 2,2 1.104,0 2,-0.896 2,-2 v -8 c 0,-1.105 -0.896,-2 -2,-2 z" /><path
       style="fill:#85c808"
       id="path6"
       d="m 8,24.978 h 2 v 5 c 0,1.104 0.896,2 2,2 1.104,0 2,-0.896 2,-2 v -5 h 4 v 5 c 0,1.104 0.896,2 2,2 1.104,0 2,-0.896 2,-2 v -5 h 2 v -15 H 8 Z" /><path
       style="fill:#85c808"
       id="path8"
       d="M 20.723,2.53 21.75,0.751 C 21.889,0.511 21.807,0.206 21.566,0.067 21.328,-0.072 21.021,0.01 20.883,0.251 L 19.882,1.985 C 18.732,1.345 17.41,0.978 16,0.978 c -1.409,0 -2.731,0.367 -3.882,1.008 L 11.116,0.25 C 10.977,0.011 10.673,-0.071 10.432,0.067 10.194,0.205 10.112,0.51 10.249,0.75 l 1.028,1.78 C 9.294,3.986 8,6.328 8,8.978 H 24 C 24,6.328 22.706,3.986 20.723,2.53 Z M 13,5.978 c -0.553,0 -1,-0.447 -1,-1 0,-0.553 0.447,-1 1,-1 0.553,0 1,0.447 1,1 0,0.553 -0.447,1 -1,1 z m 6,0 c -0.553,0 -1,-0.447 -1,-1 0,-0.553 0.447,-1 1,-1 0.553,0 1,0.447 1,1 0,0.553 -0.447,1 -1,1 z" /></g><g
     transform="translate(-3,0.022)"
     id="g12" /><g
     transform="translate(-3,0.022)"
     id="g14" /><g
     transform="translate(-3,0.022)"
     id="g16" /><g
     transform="translate(-3,0.022)"
     id="g18" /><g
     transform="translate(-3,0.022)"
     id="g20" /><g
     transform="translate(-3,0.022)"
     id="g22" /></svg>